<?xml version="1.0" encoding="utf-8"?>
<!-- Generator: Adobe Illustrator 22.1.0, SVG Export Plug-In . SVG Version: 6.00 Build 0)  -->
<svg version="1.1" id="Ebene_1" xmlns="http://www.w3.org/2000/svg" xmlns:xlink="http://www.w3.org/1999/xlink" x="0px" y="0px"
	 viewBox="0 0 295.9 94.5" style="enable-background:new 0 0 295.9 94.5;" xml:space="preserve">
<style type="text/css">
	.st0{fill:#00869A;}
	.st1{fill:#00568A;}
	.st2{fill:#181716;}
</style>
<g>
	<line class="st0" x1="155.5" y1="65.4" x2="155.5" y2="65.4"/>
	<path class="st0" d="M217.3,45c0,0-2.2,7.6-0.8,10.7c2.4,5.2,10,6.6,16.4,6.6c8.5,0,18.1-1.9,18.9-13.9c0.6-9.1-9.3-12.1-12.2-13.4
		c-2.6-1.2-5.7-3.2-5.3-5.6c0.4-2.7,2.8-3.3,4.9-3.3c5.7,0,4.8,5.6,4.8,5.6l12.4,0c0,0,1.9-8.4-4-12.5c-4.1-2.8-9.3-3-13.2-3
		c-14.2,0-17.5,8-18,13.4c-0.5,5.8,3.7,9.3,9.6,12.4c5.7,3,8.4,4.8,7.3,7.9c-0.6,1.7-3.3,2.5-5.3,2.3c-5.5-0.5-3.3-7.3-3.3-7.3"/>
	<path class="st0" d="M295.2,17h-12.6h-0.7l-7.8,32.8c0,0-1.6,0-2.8,0c-2,0-3.3-1.5-2.8-3.5l6.8-29.3h-14l-7.2,31.2
		c-1.6,6.8,2.7,12.4,9.5,12.4h8.2h7.2h6.8L295.9,17"/>
	<path class="st0" d="M207.8,28h11.8l2.6-11.1h-11.8l3.5-15.5h-14.1l-10.8,47c-1.6,6.8,2.7,12.4,9.5,12.4h8.2h5l2.5-10.8
		c0,0-6.8,0-8,0c-2,0-3.3-1.5-2.8-3.5"/>
	<polyline class="st0" points="148.7,38.6 141.6,60.9 145.2,60.9 	"/>
	<polyline class="st0" points="152.2,38.6 145.2,60.9 148.7,60.9 	"/>
	<polyline class="st0" points="145.1,38.6 138.1,60.9 141.6,60.9 	"/>
	<polyline class="st0" points="138.1,60.9 141.6,38.6 134.5,60.9 	"/>
	<polyline class="st0" points="194.9,12.4 197.6,1.3 162.7,1.3 159.1,26.1 178.6,27.7 159.1,29.5 177.8,31.3 157.6,32.9 177,34.8 
		155.6,36.6 148.7,60.9 183.8,60.9 186.3,49.8 165.8,49.8 168.8,36.6 184.4,36.6 186.9,25.6 171.3,25.6 174.4,12.4 	"/>
	<path class="st1" d="M48.4,8.2c1.4,3.7,0.7,9.2-0.5,12.6l-14.2,0c1.4-2.2,1.2-7.3-1.6-8.6c-2.2-1.1-9.7-1.5-10.1,4.2
		c-0.4,5.4,4,7.1,7.2,9.5c5.5,3.4,14.3,5.3,14.2,17.1c-0.1,8.2-5,15.9-11,18.3c-8.7,2.7-23.9,3.3-30.5-5.4c-2.4-4.2-2.4-11.3,0-15.5
		h12.9c-0.6,2.3-0.9,5.5-0.5,7c1,2.7,4.2,3.7,6.4,3.7c4.1,0.1,6.7-2,7.7-5.3c2-6.4-10.4-12-16.2-16.6c-4.2-3.3-6.1-9.4-4.2-16.3
		C9.6,6.3,16.5,2.2,23,0.9C29.3-0.4,44.5-1.8,48.4,8.2"/>
	<path class="st1" d="M73.4,18.2h-7.8l3.8-16.5H55.5L41.8,60.9h13.9l7.4-32c0.4,0,1.6,0,2.6,0c2,0,3.3,1.5,2.8,3.5l-6.7,28.5h14
		l7.1-30.4C84.5,23.7,80.3,18.2,73.4,18.2"/>
	<polyline class="st1" points="106.9,12.3 109.4,1.4 94.9,1.4 92.3,12.3 	"/>
	<polyline class="st1" points="141.8,23.5 148.7,1.3 145.3,1.3 	"/>
	<polyline class="st1" points="162.7,1.3 159.2,1.3 155.7,23.6 	"/>
	<polyline class="st1" points="152.2,23.6 159.2,1.3 155.8,1.3 	"/>
	<polyline class="st1" points="148.7,23.6 155.7,1.3 152.3,1.3 	"/>
	<polyline class="st1" points="145.2,23.6 152.3,1.3 148.7,1.3 	"/>
	<path class="st1" d="M119.5,35l21.4-1.7l0-0.1l-20.6-1.7l21.3-1.8l-20.5-1.8L142,26c0,0,0,0,0,0l-0.3-1.8c-1.1-4-4.6-6.8-9.5-6.8
		H124h-7.2H110l-10,43.5h0.7h12.6h0.7l6.2-25.9"/>
	<polyline class="st1" points="140.1,37 126.4,35.6 120.5,60.9 134.5,60.9 140.1,37 	"/>
	<polyline class="st1" points="95.6,60.9 81.1,60.9 91.1,17.4 105.6,17.4 	"/>
	<path class="st2" d="M5,84.6l3.1-0.3c0.2,1.1,0.6,1.8,1.1,2.3c0.6,0.5,1.4,0.7,2.3,0.7c1,0,1.8-0.2,2.3-0.7c0.5-0.4,0.8-1,0.8-1.5
		c0-0.4-0.1-0.7-0.3-1c-0.2-0.3-0.6-0.5-1.2-0.7c-0.4-0.1-1.2-0.4-2.6-0.7c-1.7-0.4-2.9-1-3.6-1.6c-1-0.9-1.5-2-1.5-3.2
		c0-0.8,0.2-1.6,0.7-2.3c0.5-0.7,1.1-1.2,2-1.6c0.9-0.4,1.9-0.6,3.1-0.6c2,0,3.5,0.4,4.5,1.3c1,0.9,1.5,2.1,1.6,3.5l-3.2,0.1
		c-0.1-0.8-0.4-1.4-0.9-1.8c-0.5-0.4-1.1-0.5-2-0.5c-0.9,0-1.7,0.2-2.2,0.6c-0.3,0.2-0.5,0.6-0.5,1c0,0.4,0.2,0.7,0.5,1
		c0.4,0.3,1.4,0.7,3,1.1c1.6,0.4,2.7,0.8,3.5,1.1c0.8,0.4,1.3,0.9,1.8,1.6c0.4,0.7,0.6,1.5,0.6,2.5c0,0.9-0.3,1.8-0.8,2.6
		c-0.5,0.8-1.2,1.4-2.2,1.8c-0.9,0.4-2.1,0.6-3.5,0.6c-2,0-3.6-0.5-4.7-1.4C5.8,87.7,5.2,86.4,5,84.6"/>
	<polyline class="st2" points="32.8,89.8 20.7,89.8 20.7,73.8 32.5,73.8 32.5,76.5 23.9,76.5 23.9,80 31.9,80 31.9,82.7 23.9,82.7 
		23.9,87.1 32.8,87.1 	"/>
	<polyline class="st2" points="48.6,89.8 45.4,89.8 45.4,76.5 40.6,76.5 40.6,73.8 53.3,73.8 53.3,76.5 48.6,76.5 	"/>
	<path class="st2" d="M58.3,89.8l-4.4-11.6h3.3l2.8,8.2l2.7-8.2h3.2l-4.1,11.1l-0.7,2c-0.3,0.7-0.5,1.2-0.8,1.5
		c-0.2,0.4-0.5,0.6-0.8,0.9c-0.3,0.2-0.7,0.4-1.2,0.5c-0.5,0.1-1,0.2-1.6,0.2c-0.6,0-1.2-0.1-1.7-0.2l-0.3-2.4
		C55.2,92,55.6,92,56,92c0.7,0,1.2-0.2,1.6-0.6C57.9,91,58.2,90.5,58.3,89.8"/>
	<rect x="67.8" y="73.8" class="st2" width="3.1" height="16"/>
	<path class="st2" d="M74.1,87.2c0.5,0.9,1.2,1.6,2.2,2.1c1,0.5,2,0.7,3,0.7c1.7,0,3.1-0.6,4.3-1.7c1.1-1.1,1.7-2.6,1.7-4.4
		c0-1.7-0.6-3.2-1.7-4.3c-1.1-1.1-2.6-1.7-4.3-1.7c-1.1,0-2.2,0.3-3.1,0.8c-0.9,0.5-1.6,1.2-2.1,2.2c-0.5,1-0.8,1.9-0.8,3
		C73.3,85.2,73.6,86.3,74.1,87.2 M77.3,81.4c0.5-0.6,1.2-0.9,2-0.9c0.8,0,1.5,0.3,2,0.9c0.5,0.6,0.8,1.5,0.8,2.6
		c0,1.2-0.3,2.1-0.8,2.7c-0.5,0.6-1.2,0.9-2,0.9c-0.8,0-1.5-0.3-2-0.9c-0.5-0.6-0.8-1.5-0.8-2.6C76.4,82.8,76.7,82,77.3,81.4z"/>
	<path class="st2" d="M86.6,86.5l3.1-0.5c0.1,0.6,0.4,1,0.8,1.4c0.4,0.3,1,0.5,1.7,0.5c0.8,0,1.4-0.1,1.8-0.4
		c0.3-0.2,0.4-0.5,0.4-0.8c0-0.2-0.1-0.4-0.2-0.6c-0.2-0.1-0.5-0.3-1-0.4c-2.5-0.5-4-1-4.7-1.5c-0.9-0.6-1.4-1.5-1.4-2.6
		c0-1,0.4-1.8,1.2-2.5c0.8-0.7,2-1,3.7-1c1.6,0,2.8,0.3,3.5,0.8c0.8,0.5,1.3,1.3,1.6,2.3l-2.9,0.5c-0.1-0.5-0.4-0.8-0.7-1
		c-0.3-0.2-0.8-0.4-1.5-0.4c-0.8,0-1.4,0.1-1.7,0.3c-0.2,0.2-0.3,0.4-0.3,0.6c0,0.2,0.1,0.4,0.3,0.6c0.3,0.2,1.2,0.5,2.9,0.9
		c1.6,0.4,2.8,0.8,3.4,1.4c0.6,0.5,1,1.3,1,2.3c0,1.1-0.4,2-1.3,2.7c-0.9,0.8-2.2,1.1-3.9,1.1c-1.6,0-2.8-0.3-3.7-1
		C87.4,88.4,86.8,87.6,86.6,86.5"/>
	<path class="st2" d="M106,87.4c-0.3,0.3-0.7,0.4-1.2,0.4c-0.7,0-1.3-0.3-1.8-0.8c-0.5-0.5-0.7-1.2-0.7-2.1h7.7
		c0-2.3-0.4-4.1-1.4-5.2c-1-1.1-2.4-1.7-4.1-1.7c-1.5,0-2.8,0.5-3.8,1.6c-1,1.1-1.5,2.6-1.5,4.5c0,1.6,0.4,2.9,1.1,4
		c1,1.3,2.5,2,4.5,2c1.3,0,2.3-0.3,3.2-0.9c0.8-0.6,1.5-1.4,1.9-2.6l-3.1-0.5C106.6,86.7,106.3,87.1,106,87.4 M103,81
		c0.4-0.5,1-0.7,1.7-0.7c0.6,0,1.2,0.2,1.6,0.7c0.4,0.5,0.7,1.1,0.7,2h-4.6C102.3,82.2,102.6,81.5,103,81z"/>
	<path class="st2" d="M129.8,83.9h-3.7v-2.7h7v6.4c-0.7,0.7-1.7,1.2-2.9,1.7c-1.3,0.5-2.6,0.7-3.9,0.7c-1.7,0-3.1-0.4-4.4-1
		c-1.2-0.7-2.2-1.7-2.8-3c-0.6-1.3-0.9-2.7-0.9-4.3c0-1.7,0.3-3.1,1-4.4c0.7-1.3,1.7-2.3,3.1-3c1-0.5,2.3-0.8,3.8-0.8
		c2,0,3.5,0.4,4.6,1.2c1.1,0.8,1.8,2,2.2,3.4l-3.2,0.6c-0.2-0.8-0.6-1.4-1.3-1.9c-0.6-0.5-1.4-0.7-2.3-0.7c-1.4,0-2.5,0.4-3.4,1.3
		c-0.8,0.9-1.2,2.2-1.2,4c0,1.9,0.4,3.3,1.3,4.3c0.8,0.9,1.9,1.4,3.3,1.4c0.7,0,1.4-0.1,2-0.4c0.7-0.3,1.3-0.6,1.7-1"/>
	<path class="st2" d="M135.8,89.8V78.2h2.8v1.6c1-1.2,2.2-1.8,3.6-1.8c0.7,0,1.4,0.2,1.9,0.5c0.5,0.3,1,0.8,1.3,1.4
		c0.5-0.6,1.1-1.1,1.6-1.4c0.6-0.3,1.2-0.5,1.9-0.5c0.9,0,1.6,0.2,2.2,0.5c0.6,0.3,1,0.9,1.3,1.5c0.2,0.5,0.3,1.3,0.3,2.4v7.4h-3.1
		v-6.6c0-1.1-0.1-1.9-0.3-2.2c-0.3-0.4-0.7-0.7-1.3-0.7c-0.4,0-0.8,0.1-1.2,0.4c-0.4,0.3-0.7,0.6-0.8,1.2c-0.2,0.5-0.3,1.3-0.3,2.4
		v5.6h-3.1v-6.3c0-1.1-0.1-1.9-0.2-2.2c-0.1-0.3-0.3-0.6-0.5-0.7c-0.2-0.2-0.5-0.2-0.9-0.2c-0.5,0-0.9,0.1-1.3,0.4
		c-0.4,0.3-0.6,0.6-0.8,1.1c-0.2,0.5-0.2,1.3-0.2,2.4v5.6"/>
	<path class="st2" d="M158.6,88.1c0.5,0.6,1,1.1,1.7,1.5c0.6,0.3,1.3,0.5,2,0.5c1.3,0,2.5-0.5,3.4-1.6c0.9-1.1,1.4-2.6,1.4-4.6
		c0-1.9-0.5-3.4-1.4-4.4c-0.9-1-2.1-1.5-3.5-1.5c-1.3,0-2.4,0.5-3.4,1.6v-5.8h-3.1v16h2.8V88.1 M159.5,81.1c0.5-0.6,1.1-0.9,1.8-0.9
		c0.7,0,1.4,0.3,1.8,0.9c0.5,0.6,0.7,1.5,0.7,2.9c0,1.2-0.2,2.2-0.7,2.7c-0.5,0.6-1.1,0.9-1.7,0.9c-0.9,0-1.6-0.4-2.1-1.2
		c-0.4-0.6-0.6-1.5-0.6-2.7C158.8,82.6,159,81.7,159.5,81.1z"/>
	<polyline class="st2" points="172.8,89.8 169.5,89.8 169.5,73.8 172.8,73.8 172.8,80.1 179.1,80.1 179.1,73.8 182.3,73.8 
		182.3,89.8 179.1,89.8 179.1,82.8 172.8,82.8 	"/>
	<path class="st2" d="M198.1,87.2c-0.4,0.2-0.9,0.3-1.4,0.3c-0.7,0-1.3-0.2-1.7-0.6c-0.4-0.4-0.6-1-0.6-1.6c0-0.5,0.2-1,0.5-1.5
		c0.3-0.5,0.9-0.9,1.6-1.3l3.1,3.8C199.1,86.7,198.6,87.1,198.1,87.2 M204.8,87.1c-0.5-0.4-1-0.7-1.3-1c0.2-0.3,0.4-0.7,0.7-1.1
		c0.2-0.5,0.4-1.2,0.7-2.2l-2.8-0.6c-0.2,0.7-0.4,1.4-0.7,1.8l-2.2-2.9c1.2-0.7,1.9-1.4,2.3-2c0.4-0.6,0.6-1.2,0.6-1.8
		c0-1-0.4-1.9-1.2-2.6c-0.8-0.7-1.9-1.1-3.2-1.1c-1.4,0-2.5,0.3-3.3,1c-0.8,0.7-1.2,1.5-1.2,2.5c0,0.5,0.1,1.1,0.4,1.7
		c0.3,0.6,0.7,1.2,1.2,1.8c-1.2,0.6-2.1,1.3-2.7,2.1c-0.6,0.8-0.9,1.7-0.9,2.8c0,1.1,0.4,2.1,1.2,3c1,1.1,2.5,1.7,4.5,1.7
		c1,0,1.9-0.1,2.6-0.4c0.7-0.3,1.4-0.7,2.1-1.3c0.8,0.8,1.7,1.4,2.6,1.8l1.9-2.4C205.7,87.7,205.3,87.4,204.8,87.1z M196.2,76.9
		c0-0.3,0.1-0.6,0.4-0.8c0.3-0.2,0.7-0.4,1.1-0.4c0.5,0,0.9,0.1,1.2,0.4c0.3,0.3,0.4,0.6,0.4,1c0,0.5-0.3,0.9-0.9,1.4l-0.8,0.6
		l-0.8-0.9C196.4,77.7,196.2,77.3,196.2,76.9z"/>
	<path class="st2" d="M224.4,83.9l3.1,1c-0.5,1.7-1.3,3-2.4,3.9c-1.1,0.8-2.5,1.3-4.2,1.3c-2.1,0-3.9-0.7-5.2-2.2
		c-1.4-1.4-2-3.4-2-5.9c0-2.7,0.7-4.7,2.1-6.2c1.4-1.5,3.2-2.2,5.4-2.2c2,0,3.5,0.6,4.8,1.7c0.7,0.7,1.3,1.7,1.6,2.9l-3.2,0.8
		c-0.2-0.8-0.6-1.5-1.2-2c-0.6-0.5-1.3-0.7-2.2-0.7c-1.2,0-2.1,0.4-2.9,1.3c-0.7,0.9-1.1,2.2-1.1,4.1c0,2,0.4,3.5,1.1,4.3
		c0.7,0.9,1.7,1.3,2.8,1.3c0.9,0,1.6-0.3,2.2-0.8C223.7,85.9,224.1,85.1,224.4,83.9"/>
	<path class="st2" d="M230.3,87.2c0.5,0.9,1.2,1.6,2.2,2.1c1,0.5,2,0.7,3,0.7c1.7,0,3.1-0.6,4.3-1.7c1.1-1.1,1.7-2.6,1.7-4.4
		c0-1.7-0.6-3.2-1.7-4.3c-1.1-1.1-2.6-1.7-4.3-1.7c-1.1,0-2.2,0.3-3.1,0.8c-0.9,0.5-1.6,1.2-2.1,2.2c-0.5,1-0.8,1.9-0.8,3
		C229.6,85.2,229.8,86.3,230.3,87.2 M233.5,81.4c0.5-0.6,1.2-0.9,2-0.9c0.8,0,1.5,0.3,2,0.9c0.5,0.6,0.8,1.5,0.8,2.6
		c0,1.2-0.3,2.1-0.8,2.7c-0.5,0.6-1.2,0.9-2,0.9c-0.8,0-1.5-0.3-2-0.9c-0.5-0.6-0.8-1.5-0.8-2.6C232.7,82.8,233,82,233.5,81.4z"/>
	<rect x="243.9" y="86.7" class="st2" width="3.1" height="3.1"/>
	<polyline class="st2" points="259.6,89.8 256.4,89.8 256.4,73.8 259.6,73.8 259.6,80.9 266.1,73.8 270.5,73.8 264.4,80 270.8,89.8 
		266.6,89.8 262.2,82.3 259.6,84.9 	"/>
	<path class="st2" d="M283.6,83.9h-3.7v-2.7h7v6.4c-0.7,0.7-1.7,1.2-2.9,1.7c-1.3,0.5-2.6,0.7-3.9,0.7c-1.7,0-3.1-0.4-4.4-1
		c-1.2-0.7-2.2-1.7-2.8-3c-0.6-1.3-0.9-2.7-0.9-4.3c0-1.7,0.3-3.1,1-4.4c0.7-1.3,1.7-2.3,3.1-3c1-0.5,2.3-0.8,3.8-0.8
		c2,0,3.5,0.4,4.6,1.2c1.1,0.8,1.8,2,2.2,3.4l-3.2,0.6c-0.2-0.8-0.6-1.4-1.3-1.9c-0.6-0.5-1.4-0.7-2.3-0.7c-1.4,0-2.5,0.4-3.4,1.3
		c-0.8,0.9-1.2,2.2-1.2,4c0,1.9,0.4,3.3,1.3,4.3c0.8,0.9,1.9,1.4,3.3,1.4c0.7,0,1.4-0.1,2-0.4c0.7-0.3,1.3-0.6,1.7-1"/>
</g>
</svg>
